<svg width="19" height="20" viewBox="0 0 19 20" fill="none" xmlns="http://www.w3.org/2000/svg">
<path opacity="0.85" d="M7.7 17.2C7.7 18.88 8.78 19.9 9.38 19.9C9.98 19.9 11.06 18.88 11.06 17.2C11.06 17.02 9.56 12.58 9.5 10.48C11.24 11.56 14.42 15.1 14.6 15.16C16.04 16 17.42 15.58 17.78 15.1C18.02 14.56 17.72 13.12 16.22 12.28C16.04 12.16 11.54 11.26 9.62 10.24C11.54 9.22 16.04 8.32 16.22 8.2C17.72 7.36 18.02 5.92 17.78 5.44C17.42 4.9 16.04 4.48 14.6 5.32C14.42 5.44 11.24 8.92 9.5 10.06C9.56 7.9 11.06 3.58 11.06 3.28C11.06 1.6 9.98 0.579999 9.38 0.579999C8.78 0.579999 7.7 1.6 7.7 3.28C7.7 3.52 9.14 7.9 9.26 10.06C7.46 8.92 4.4 5.44 4.16 5.32C2.72 4.48 1.34 4.9 0.98 5.44C0.74 5.92 1.04 7.36 2.54 8.2C2.78 8.32 7.22 9.22 9.08 10.24C7.22 11.26 2.78 12.16 2.54 12.28C1.04 13.12 0.74 14.56 0.98 15.1C1.34 15.58 2.72 16 4.16 15.16C4.34 15.04 7.46 11.56 9.26 10.48C9.14 12.58 7.7 17.02 7.7 17.2Z" fill="black"/>
</svg>
